<?xml version="1.0" encoding="UTF-8"?>
<!-- Generator: Adobe Illustrator 19.2.1, SVG Export Plug-In . SVG Version: 6.00 Build 0)  -->
<svg id="layer" width="599.96" height="262.95" version="1.1" viewBox="0 0 599.96 262.95" xml:space="preserve" xmlns="http://www.w3.org/2000/svg">
<style type="text/css">
	.st0{fill:#7B8981;}
	.st1{fill:#444445;}
</style>
<g transform="translate(-26.239 -194.55)">
	<path class="st0" d="m166.7 272.9c-0.1-0.6-0.1-1.2-0.3-1.8-0.2-1.2-0.8-2.9-2.2-4.8-1.3-1.9-3.7-3.6-6.9-4.6-5.7-1.6-12.1-0.1-16.7 3.7-1.7 1.4-3.2 3.3-4.3 5.4-1.2 2.3-1.6 4.8-1.6 7.4v-0.1c-0.1 2.3 0.6 5 1.5 7.1 1.2 2.6 2.8 4.9 5.1 6.7 4.5 3.6 10.1 4.4 15.7 4.5 0 0 0.3 0 0 0 3.4-0.3 6.7-0.8 9.9-2 3.6-1.4 7-3.6 9.8-6.3 2.5-2.4 4.7-5.3 6.4-8.5 5.7-10.4 5.4-23.2 1.7-34.2-1.2-3.7-2.9-7.2-4.8-10.5-4.3-7-10.3-13.3-17.6-18-5.8-3.8-12.3-6.6-19.1-8.1-4.2-1-8.5-1.3-12.9-1.5-2.7 0-6.4 0.2-9.3 0.5-5 0.5-10 1.4-14.8 2.7-6.8 1.8-13.4 4.4-19.6 7.8-10.7 5.9-19.8 13.7-27.4 23.2-6.3 7.9-11.2 17.2-14.3 26.8-3.2 9.8-5.1 19.9-5.4 30.2 0 0.8 0 1.6-0.1 2.5v1.1 0.3c0.1 3.9 0.2 7.8 0.4 11.7 0.5 6.3 1.4 12.5 2.7 18.7 0.8 3.5 1.6 7 2.6 10.5 3.7 12.6 9.1 24.7 16 35.9 7 11.4 15.5 22 25.2 31.3 10.3 9.8 21.7 18.2 34 25.3 11.9 6.9 24.9 12 38.1 15.6 6 1.6 12.1 2.9 18.3 3.9 5.9 1 11.8 1.4 17.7 1.8 0.4 0 0.8 0 1.2 0.1-4.8 0.2-9.6 0.3-14.4 0.3-6.7-0.1-13.3-0.8-19.9-1.9-6.8-1.1-13.4-2.6-20-4.5-7.2-2.1-14.2-4.9-21-7.9-13.5-5.9-26.1-14.1-37.4-23.5-11-9.1-20.8-19.8-29-31.5-7.8-11.2-14.2-23.4-18.8-36.2-0.6-1.6-1.1-3.3-1.7-4.9-3.3-10.1-5.5-20.6-6.5-31.2-0.6-6.9-1-13.8-0.6-20.7 0.5-8.6 1.7-17.1 4-25.5 1.9-7.2 4.8-14 8.1-20.7 7.9-15.9 20.7-29.4 35.7-38.9 13.7-8.6 29.1-13.4 45.1-15.1 15.3-1.6 30.9 1 44.3 8.5 2 1.1 4 2.3 5.8 3.7 8.6 5.9 15.7 13.7 20.6 22.5 5.3 9.6 8.2 20.6 7.9 31.6-0.2 6.9-1.8 13.4-4.7 19.7-2.4 5.3-6.2 10.1-10.6 13.9-9.4 8.2-23.1 11.3-35.1 7.5-3.7-1.2-7.2-3-10-5.6-7.4-6.7-9.9-18.9-4.6-27.6 1.5-2.5 3.6-4.6 5.8-6.1 5.5-3.8 12.9-5 19.2-2.6 3.4 1.4 5.8 3.6 7 5.7 1.3 2.1 1.6 4 1.7 5.2 0.1 0.2 0.1 0.8 0.1 1.5"/>


	<path class="st1" d="m255.6 263.6-4.2-13.7h-21.1l-4.2 13.7h-13.2l20.4-57.7h15l20.5 57.7h-13.2m-7.1-23.9c-3.9-12.4-6.1-19.4-6.6-21s-0.8-2.9-1-3.9c-0.9 3.4-3.4 11.7-7.5 24.9z"/>
	<path class="st1" d="m306.2 241.6v22.1h-12.3v-57.5h16.9c7.9 0 13.7 1.4 17.5 4.3 3.8 2.8 5.7 7.2 5.7 13 0 3.4-0.9 6.4-2.8 9s-4.5 4.7-8 6.2c8.7 12.9 14.4 21.3 17 25h-13.6l-13.8-22.1h-6.6m0-9.9h4c3.9 0 6.7-0.6 8.6-1.9 1.8-1.3 2.8-3.3 2.8-6.1 0-2.7-0.9-4.7-2.8-5.8-1.9-1.2-4.8-1.7-8.8-1.7h-3.7v15.5z"/>
	<path class="st1" d="m384.9 231.4h23v29.8c-3.7 1.2-7.2 2.1-10.5 2.5-3.3 0.5-6.7 0.7-10.1 0.7-8.7 0-15.4-2.5-20-7.6s-6.9-12.4-6.9-22c0-9.3 2.7-16.5 8-21.7s12.8-7.8 22.2-7.8c5.9 0 11.7 1.2 17.2 3.5l-4.1 9.8c-4.2-2.1-8.6-3.2-13.2-3.2-5.3 0-9.6 1.8-12.7 5.3s-4.8 8.3-4.8 14.3c0 6.2 1.3 11 3.9 14.3s6.3 4.9 11.2 4.9c2.6 0 5.2-0.3 7.8-0.8v-12h-11v-10"/>
	<path class="st1" d="m490.5 234.8c0 9.5-2.4 16.8-7.1 21.9-4.8 5.1-11.6 7.7-20.4 7.7-8.9 0-15.7-2.5-20.4-7.7-4.8-5.1-7.1-12.5-7.1-22s2.4-16.9 7.1-21.9c4.8-5.1 11.6-7.6 20.5-7.6s15.7 2.5 20.4 7.6c4.6 5.2 7 12.5 7 22m-42.3 0c0 6.4 1.2 11.3 3.7 14.5 2.5 3.3 6.1 4.9 11 4.9 9.8 0 14.7-6.5 14.7-19.4 0-13-4.9-19.4-14.6-19.4-4.9 0-8.6 1.6-11 4.9-2.5 3.3-3.8 8.1-3.8 14.5"/>
	<path class="st1" d="m553.2 247.7c0 5.2-1.9 9.3-5.6 12.3-3.8 3-9 4.5-15.7 4.5-6.2 0-11.6-1.2-16.4-3.5v-11.3c3.9 1.7 7.2 2.9 9.9 3.7 2.7 0.7 5.2 1.1 7.4 1.1 2.7 0 4.8-0.5 6.2-1.5s2.2-2.5 2.2-4.6c0-1.1-0.3-2.1-0.9-3s-1.6-1.7-2.8-2.5-3.7-2.1-7.5-3.9c-3.5-1.6-6.2-3.2-8-4.8-1.8-1.5-3.2-3.3-4.2-5.3-1.1-2-1.6-4.4-1.6-7.1 0-5.1 1.7-9.1 5.2-12s8.3-4.4 14.4-4.4c3 0 5.9 0.4 8.6 1.1s5.6 1.7 8.6 3l-4 9.5c-3.1-1.3-5.6-2.1-7.7-2.6-2-0.5-4-0.7-6-0.7-2.3 0-4.1 0.5-5.3 1.6s-1.9 2.5-1.9 4.2c0 1.1 0.3 2 0.7 2.8 0.5 0.8 1.3 1.6 2.4 2.3s3.7 2.1 7.8 4c5.4 2.6 9.1 5.1 11.1 7.7 2.1 2.5 3.1 5.6 3.1 9.4"/>
	<polygon class="st1" points="626.2 206.1 607 241.3 607 263.6 594.8 263.6 594.8 241.7 575.6 206.1 588.9 206.1 600.9 229.8 613 206.1"/>
	<polygon class="st1" points="227.8 275.2 216.5 275.2 216.5 284.3 226.9 284.3 226.9 287.3 216.5 287.3 216.5 299.7 212.9 299.7 212.9 272.2 227.8 272.2"/>
	<path class="st1" d="m276.4 285.7c0 9.5-5.8 14.5-12.9 14.5-7.3 0-12.4-5.6-12.4-13.9 0-8.7 5.5-14.4 12.9-14.4 7.5-0.1 12.4 5.6 12.4 13.8m-21.5 0.4c0 5.9 3.2 11.1 8.8 11.1 5.7 0 8.9-5.2 8.9-11.4 0-5.5-2.9-11.2-8.8-11.2-5.9 0.1-8.9 5.5-8.9 11.5"/>
	<path class="st1" d="m305 272.2v16.3c0 6.2 2.8 8.8 6.4 8.8 4.1 0 6.7-2.7 6.7-8.8v-16.3h3.6v16c0 8.4-4.5 11.9-10.5 11.9-5.7 0-9.9-3.2-9.9-11.7v-16.2h3.7"/>
	<path class="st1" d="m348.2 299.7v-27.5h3.9l8.9 13.9c2.1 3.2 3.7 6.1 5 8.9h0.1c-0.3-3.7-0.4-7-0.4-11.3v-11.5h3.4v27.5h-3.6l-8.8-14c-1.9-3.1-3.8-6.2-5.2-9.2h-0.1c0.2 3.5 0.3 6.8 0.3 11.3v11.7h-3.5"/>
	<path class="st1" d="m395.6 272.6c2.2-0.3 4.8-0.6 7.6-0.6 5.1 0 8.8 1.2 11.2 3.4 2.5 2.2 3.9 5.4 3.9 9.9s-1.4 8.2-4 10.7c-2.6 2.6-6.9 4-12.2 4-2.5 0-4.7-0.1-6.5-0.3v-27.1m3.5 24.3c0.9 0.2 2.2 0.2 3.6 0.2 7.6 0 11.8-4.2 11.8-11.7 0-6.5-3.7-10.6-11.2-10.6-1.8 0-3.2 0.2-4.2 0.4z"/>
	<path class="st1" d="m446.5 291.1-2.9 8.7h-3.7l9.4-27.5h4.3l9.4 27.5h-3.8l-3-8.7h-9.7m9-2.8-2.7-7.9c-0.6-1.8-1-3.4-1.4-5h-0.1c-0.4 1.6-0.9 3.3-1.4 5l-2.7 8h8.3z"/>
	<polygon class="st1" points="481.4 272.2 501.9 272.2 501.9 275.2 493.5 275.2 493.5 299.7 489.9 299.7 489.9 275.2 481.4 275.2"/>
	<rect class="st1" x="525.5" y="272.2" width="3.6" height="27.5"/>
	<path class="st1" d="m579.5 285.7c0 9.5-5.8 14.5-12.9 14.5-7.3 0-12.4-5.6-12.4-13.9 0-8.7 5.5-14.4 12.9-14.4 7.5-0.1 12.4 5.6 12.4 13.8m-21.5 0.4c0 5.9 3.2 11.1 8.8 11.1 5.7 0 8.9-5.2 8.9-11.4 0-5.5-2.9-11.2-8.8-11.2-6 0.1-8.9 5.5-8.9 11.5"/>
	<path class="st1" d="m604.6 299.7v-27.5h3.9l8.9 13.9c2.1 3.2 3.7 6.1 5 8.9h0.1c-0.3-3.7-0.4-7-0.4-11.3v-11.5h3.4v27.5h-3.6l-8.8-14c-1.9-3.1-3.8-6.2-5.2-9.2h-0.1c0.2 3.5 0.3 6.8 0.3 11.3v11.7h-3.5"/>
</g>
</svg>
