<?xml version="1.0" encoding="UTF-8"?>
<svg width="700pt" height="700pt" version="1.1" viewBox="0 0 700 700" xmlns="http://www.w3.org/2000/svg">
 <g>
  <path d="m554.75 250.25-35-35c-7-7-17.5-7-24.5 0l-35 35c-7 7-7 17.5 0 24.5s17.5 7 24.5 0l5.25-5.25v45.5c0 10.5 7 17.5 17.5 17.5s17.5-7 17.5-17.5v-45.5l5.25 5.25c3.5 3.5 8.75 5.25 12.25 5.25s8.75-1.75 12.25-5.25c7-7 7-17.5 0-24.5z"/>
  <path d="m280 280h70v52.5h-70z"/>
  <path d="m280 140h70v52.5h-70z"/>
  <path d="m280 210h70v52.5h-70z"/>
  <path d="m192.5 210h70v52.5h-70z"/>
  <path d="m105 210h70v52.5h-70z"/>
  <path d="m192.5 280h70v52.5h-70z"/>
  <path d="m367.5 332.5h52.5c10.5 0 17.5-7 17.5-17.5v-35h-70z"/>
  <path d="m367.5 140h70v52.5h-70z"/>
  <path d="m367.5 210h70v52.5h-70z"/>
  <path d="m420 35h-297.5c-10.5 0-17.5 7-17.5 17.5v70h332.5v-70c0-10.5-7-17.5-17.5-17.5z"/>
  <path d="m192.5 140h70v52.5h-70z"/>
  <path d="m105 140h70v52.5h-70z"/>
  <path d="m175 280h-70v35c0 10.5 7 17.5 17.5 17.5h52.5z"/>
  <path d="m500.5 351.75-80.5 33.25 87.5 35 87.5-35-80.5-33.25c-5.25-1.75-8.75-1.75-14 0z"/>
  <path d="m420 402.5 78.75 31.5v91l-68.25-29.75c-7-3.5-10.5-8.75-10.5-15.75z"/>
  <path d="m595 402.5-78.75 31.5v91l68.25-29.75c7-3.5 10.5-8.75 10.5-15.75z"/>
 </g>
</svg>
