<?xml version="1.0" encoding="UTF-8" standalone="no"?>
<svg
   width="5in"
   height="5in"
   version="1.1"
   viewBox="0 0 359.99998 359.99999"
   id="svg38"
   sodipodi:docname="noun-release-plan-5491163_modified.svg"
   inkscape:version="1.1.2 (0a00cf5339, 2022-02-04)"
   xmlns:inkscape="http://www.inkscape.org/namespaces/inkscape"
   xmlns:sodipodi="http://sodipodi.sourceforge.net/DTD/sodipodi-0.dtd"
   xmlns="http://www.w3.org/2000/svg"
   xmlns:svg="http://www.w3.org/2000/svg">
  <defs
     id="defs42" />
  <sodipodi:namedview
     id="namedview40"
     pagecolor="#ffffff"
     bordercolor="#666666"
     borderopacity="1.0"
     inkscape:pageshadow="2"
     inkscape:pageopacity="0.0"
     inkscape:pagecheckerboard="0"
     inkscape:document-units="pt"
     showgrid="false"
     fit-margin-top="0"
     fit-margin-left="0"
     fit-margin-right="0"
     fit-margin-bottom="0"
     inkscape:zoom="1.125815"
     inkscape:cx="111.4748"
     inkscape:cy="268.25011"
     inkscape:window-width="2048"
     inkscape:window-height="1081"
     inkscape:window-x="0"
     inkscape:window-y="0"
     inkscape:window-maximized="1"
     inkscape:current-layer="svg38"
     units="in"
     width="5in" />
  <g
     id="g981"
     transform="matrix(1.2712477,0,0,1.2712477,-220.19409,-86.012466)"
     style="fill:#333333;fill-opacity:1">
    <path
       d="m 274.23421,160.39159 -80.5,33.25 87.5,35 87.5,-35 -80.5,-33.25 c -5.25,-1.75 -8.75,-1.75 -14,0 z"
       id="path30"
       style="fill:#333333;fill-opacity:1" />
    <path
       d="m 193.73421,211.14159 78.75,31.5 v 91 l -68.25,-29.75 c -7,-3.5 -10.5,-8.75 -10.5,-15.75 z"
       id="path32"
       style="fill:#333333;fill-opacity:1" />
    <path
       d="m 368.73421,211.14159 -78.75,31.5 v 91 l 68.25,-29.75 c 7,-3.5 10.5,-8.75 10.5,-15.75 z"
       id="path34"
       style="fill:#333333;fill-opacity:1" />
  </g>
  <path
     d="m 300.65828,141.48629 44.37601,-44.37601 c 8.8752,-8.8752 8.8752,-22.18801 0,-31.06321 L 300.65828,21.67106 c -8.8752,-8.8752 -22.18801,-8.8752 -31.06321,0 -8.8752,8.8752 -8.8752,22.18801 0,31.06321 l 6.6564,6.6564 H 121.06266 c -13.3128,0 -22.18801,8.8752 -22.18801,22.18801 0,13.3128 8.87521,22.188 22.18801,22.188 h 155.18881 l -6.6564,6.6564 c -4.4376,4.4376 -6.6564,11.094 -6.6564,15.53161 0,4.4376 2.2188,11.094 6.6564,15.5316 8.8752,8.8752 22.18801,8.8752 31.06321,0 z"
     id="path2"
     style="stroke-width:1.26789;fill:#333333;fill-opacity:1"
     sodipodi:nodetypes="sssssscssscssss" />
  <path
     d="m -45.82143,-36.339607 h -25.3125 v 75.9375 l 14.0625,14.0625 h 25.3125 v -75.9375 z m -45,22.5 h -25.3125 v 53.4375 l 14.0625,14.0625 h 25.3125 v -53.4375 z"
     clip-rule="evenodd"
     fill="#ffffff"
     fill-rule="evenodd"
     stroke-width="5.625"
     id="path1717" />
</svg>
