<?xml version="1.0" encoding="UTF-8" standalone="no"?>
<svg
   width="5in"
   height="5in"
   version="1.1"
   viewBox="0 0 360 360"
   id="svg150"
   sodipodi:docname="noun-release-5657474_modified.svg"
   inkscape:version="1.1.2 (0a00cf5339, 2022-02-04)"
   xmlns:inkscape="http://www.inkscape.org/namespaces/inkscape"
   xmlns:sodipodi="http://sodipodi.sourceforge.net/DTD/sodipodi-0.dtd"
   xmlns="http://www.w3.org/2000/svg"
   xmlns:svg="http://www.w3.org/2000/svg">
  <sodipodi:namedview
     id="namedview152"
     pagecolor="#ffffff"
     bordercolor="#666666"
     borderopacity="1.0"
     inkscape:pageshadow="2"
     inkscape:pageopacity="0.0"
     inkscape:pagecheckerboard="0"
     inkscape:document-units="pt"
     showgrid="false"
     units="in"
     width="5in"
     inkscape:zoom="0.70710678"
     inkscape:cx="231.22392"
     inkscape:cy="445.47727"
     inkscape:window-width="2048"
     inkscape:window-height="1081"
     inkscape:window-x="0"
     inkscape:window-y="0"
     inkscape:window-maximized="1"
     inkscape:current-layer="svg150" />
  <defs
     id="defs68">
    <symbol
       id="v"
       overflow="visible">
      <path
         d="M 3.6562,-0.21875 C 3.4687,-0.125 3.26948,-0.05078 3.06245,0 2.86323,0.050781 2.6562,0.078125 2.43745,0.078125 c -0.66797,0 -1.1992,-0.17969 -1.5938,-0.54688 -0.38672,-0.375 -0.57812,-0.87891 -0.57812,-1.5156 0,-0.64453 0.19141,-1.1484 0.57812,-1.5156 0.39453,-0.375 0.92578,-0.5625 1.5938,-0.5625 0.21875,0 0.42578,0.027344 0.625,0.078125 0.20703,0.054687 0.40625,0.125 0.59375,0.21875 v 0.82812 c -0.1875,-0.125 -0.375,-0.21875 -0.5625,-0.28125 -0.17969,-0.0625 -0.37109,-0.09375 -0.57812,-0.09375 -0.36719,0 -0.65625,0.12109 -0.875,0.35938 -0.21094,0.23047 -0.3125,0.55469 -0.3125,0.96875 0,0.40625 0.10156,0.73047 0.3125,0.96875 0.21875,0.23047 0.50781,0.34375 0.875,0.34375 0.20703,0 0.39844,-0.023437 0.57812,-0.078125 0.1875,-0.0625 0.375,-0.16016 0.5625,-0.29688 z"
         id="path2" />
    </symbol>
    <symbol
       id="c"
       overflow="visible">
      <path
         d="M 2.6875,-2.1719 C 2.601562,-2.210963 2.51953,-2.242213 2.4375,-2.26565 2.351562,-2.285181 2.26953,-2.2969 2.1875,-2.2969 c -0.25,0 -0.44531,0.085937 -0.57812,0.25 -0.125,0.15625 -0.1875,0.38281 -0.1875,0.67188 V -2e-5 H 0.45313 v -2.9844 h 0.96875 v 0.48438 c 0.11328,-0.19531 0.25,-0.33594 0.40625,-0.42188 0.16406,-0.09375 0.35938,-0.14062 0.57812,-0.14062 h 0.10938 c 0.039063,0 0.09375,0.00781 0.15625,0.015625 z"
         id="path5" />
    </symbol>
    <symbol
       id="b"
       overflow="visible">
      <path
         d="m 3.4375,-1.5 v 0.26562 H 1.2031 c 0.03125,0.23047 0.11328,0.40234 0.25,0.51562 0.13281,0.10547 0.32812,0.15625 0.57812,0.15625 0.20703,0 0.41406,-0.023438 0.625,-0.078125 0.20703,-0.0625 0.42188,-0.15625 0.64062,-0.28125 v 0.73438 c -0.21875,0.09375 -0.44531,0.16406 -0.67188,0.20312 -0.23047,0.039062 -0.45312,0.0625 -0.67188,0.0625 -0.54297,0 -0.96484,-0.13281 -1.2656,-0.40625 -0.30469,-0.28125 -0.45312,-0.67188 -0.45312,-1.1719 0,-0.47656 0.14453,-0.85938 0.4375,-1.1406 0.30078,-0.28125 0.70703,-0.42188 1.2188,-0.42188 0.46875,0 0.84375,0.14062 1.125,0.42188 0.28125,0.28126 0.42188,0.66406 0.42188,1.1406 z M 2.46875,-1.82812 C 2.46875,-2.0039 2.410156,-2.14453 2.29687,-2.25 2.1914,-2.36328 2.05468,-2.42188 1.89062,-2.42188 c -0.1875,0 -0.33984,0.054687 -0.45312,0.15625 -0.11719,0.10547 -0.1875,0.25 -0.21875,0.4375 z"
         id="path8" />
    </symbol>
    <symbol
       id="f"
       overflow="visible">
      <path
         d="m 1.7969,-1.3438 c -0.19922,0 -0.35156,0.039062 -0.45312,0.10938 -0.09375,0.0625 -0.14062,0.16406 -0.14062,0.29688 0,0.11719 0.035156,0.21094 0.10938,0.28125 0.082031,0.0625 0.19531,0.09375 0.34375,0.09375 0.17578,0 0.32812,-0.0625 0.45312,-0.1875 0.125,-0.125 0.1875,-0.28516 0.1875,-0.48438 V -1.3438 Z M 3.2657,-1.70318 V -8e-5 H 2.29695 v -0.4375 c -0.125,0.17969 -0.27344,0.30859 -0.4375,0.39062 -0.15625,0.082031 -0.35156,0.125 -0.57812,0.125 -0.3125,0 -0.57031,-0.085938 -0.76562,-0.26562 -0.1875,-0.1875 -0.28125,-0.42188 -0.28125,-0.70312 0,-0.35156 0.11719,-0.61328 0.35938,-0.78125 0.23828,-0.16406 0.61719,-0.25 1.1406,-0.25 h 0.5625 v -0.0625 c 0,-0.15625 -0.0625,-0.26562 -0.1875,-0.32812 -0.11719,-0.070312 -0.29688,-0.10938 -0.54688,-0.10938 -0.21094,0 -0.40234,0.023437 -0.57812,0.0625 -0.17969,0.042969 -0.33984,0.10156 -0.48438,0.17188 v -0.71875 c 0.19531,-0.050781 0.39844,-0.085938 0.60938,-0.10938 0.20703,-0.03125 0.41406,-0.046875 0.625,-0.046875 0.53906,0 0.92969,0.10938 1.1719,0.32812 0.23828,0.21094 0.35938,0.55469 0.35938,1.0312 z"
         id="path11" />
    </symbol>
    <symbol
       id="a"
       overflow="visible">
      <path
         d="m 1.5,-3.8438 v 0.85938 h 0.98438 v 0.67188 H 1.5 v 1.2812 c 0,0.13672 0.023438,0.23047 0.078125,0.28125 0.0625,0.042969 0.17578,0.0625 0.34375,0.0625 h 0.48438 V -9e-5 h -0.8125 c -0.38672,0 -0.65625,-0.078125 -0.8125,-0.23438 -0.15625,-0.156255 -0.23438,-0.42188 -0.23438,-0.79688 v -1.2812 h -0.46875 v -0.67188 h 0.46875 v -0.85938 z"
         id="path14" />
    </symbol>
    <symbol
       id="k"
       overflow="visible">
      <path
         d="M 2.5,-2.5469 V -4.1563 H 3.45312 V -1e-4 H 2.5 v -0.4375 c -0.13672,0.17969 -0.28125,0.30859 -0.4375,0.39062 -0.15625,0.082031 -0.33984,0.125 -0.54688,0.125 -0.375,0 -0.68359,-0.14453 -0.92188,-0.4375 -0.23047,-0.28906 -0.34375,-0.67188 -0.34375,-1.1406 0,-0.45703 0.11328,-0.83203 0.34375,-1.125 0.23828,-0.28906 0.54688,-0.4375 0.92188,-0.4375 0.19531,0 0.375,0.042969 0.53125,0.125 0.16406,0.085938 0.31641,0.21484 0.45312,0.39062 z m -0.64062,1.9375 c 0.20703,0 0.36328,-0.070313 0.46875,-0.21875 0.11328,-0.15625 0.17188,-0.37891 0.17188,-0.67188 0,-0.28125 -0.058594,-0.49219 -0.17188,-0.64062 -0.10547,-0.15625 -0.26172,-0.23438 -0.46875,-0.23438 -0.19922,0 -0.35547,0.078125 -0.46875,0.23438 -0.10547,0.14844 -0.15625,0.35938 -0.15625,0.64062 0,0.29297 0.050781,0.51562 0.15625,0.67188 0.11328,0.14844 0.26953,0.21875 0.46875,0.21875 z"
         id="path17" />
    </symbol>
    <symbol
       id="j"
       overflow="visible">
      <path
         d="m 2.0469,-0.60938 c 0.20703,0 0.36328,-0.070313 0.46875,-0.21875 0.11328,-0.15625 0.17188,-0.37891 0.17188,-0.67188 0,-0.28125 -0.058594,-0.49219 -0.17188,-0.64062 -0.10547,-0.15625 -0.26172,-0.23438 -0.46875,-0.23438 -0.19922,0 -0.35547,0.078125 -0.46875,0.23438 -0.10547,0.14844 -0.15625,0.35938 -0.15625,0.64062 0,0.29297 0.050781,0.51562 0.15625,0.67188 0.11328,0.14844 0.26953,0.21875 0.46875,0.21875 z m -0.625,-1.9375 c 0.125,-0.17578 0.26562,-0.30469 0.42188,-0.39062 0.16406,-0.082031 0.35156,-0.125 0.5625,-0.125 0.36328,0 0.66406,0.14844 0.90625,0.4375 0.23828,0.29297 0.35938,0.66797 0.35938,1.125 0,0.46875 -0.12109,0.85156 -0.35938,1.1406 -0.24219,0.29297 -0.54297,0.4375 -0.90625,0.4375 -0.21094,0 -0.39844,-0.042969 -0.5625,-0.125 C 1.68753,-0.128931 1.5469,-0.25784 1.4219,-0.43752 V -2e-5 H 0.45315 v -4.1562 H 1.4219 Z"
         id="path20" />
    </symbol>
    <symbol
       id="e"
       overflow="visible">
      <path
         d="m 0.0625,-2.9844 h 0.95312 l 0.8125,2.0156 0.6875,-2.0156 H 3.46874 L 2.20314,0.2812 C 2.07814,0.61323 1.9297,0.84761 1.76564,0.98432 1.59767,1.11713 1.37502,1.18744 1.09376,1.18744 H 0.54688 V 0.54682 h 0.29688 c 0.16406,0 0.28516,-0.027344 0.35938,-0.078125 0.070313,-0.054688 0.12891,-0.14062 0.17188,-0.26562 l 0.03125,-0.09375 z"
         id="path23" />
    </symbol>
    <symbol
       id="i"
       overflow="visible">
      <path
         d="M 2.9219,-0.71875 H 1.3125 L 1.0625,0 H 0.0313 L 1.5001,-3.9844 H 2.7345 L 4.2033,0 H 3.1721 Z m -1.3594,-0.75 h 1.0938 l -0.53125,-1.5781 z"
         id="path26" />
    </symbol>
    <symbol
       id="h"
       overflow="visible">
      <path
         d="M 0.45312,-2.9844 H 1.42187 V 0 H 0.45312 Z m 0,-1.1719 h 0.96875 v 0.78125 H 0.45312 Z"
         id="path29" />
    </symbol>
    <symbol
       id="u"
       overflow="visible">
      <path
         d="m 2.7969,-2.8906 v 0.71875 c -0.21094,-0.082031 -0.40625,-0.14453 -0.59375,-0.1875 -0.1875,-0.039063 -0.37109,-0.0625 -0.54688,-0.0625 -0.17969,0 -0.3125,0.023437 -0.40625,0.0625 -0.085938,0.042969 -0.125,0.10938 -0.125,0.20312 0,0.085938 0.03125,0.14844 0.09375,0.1875 0.070312,0.042969 0.19531,0.074219 0.375,0.09375 l 0.15625,0.015625 c 0.48828,0.0625 0.81641,0.16797 0.98438,0.3125 0.17578,0.13672 0.26562,0.35938 0.26562,0.67188 0,0.3125 -0.12109,0.55469 -0.35938,0.71875 -0.23047,0.15625 -0.57812,0.23438 -1.0469,0.23438 -0.19922,0 -0.40625,-0.015625 -0.625,-0.046875 C 0.7578,3e-5 0.54686,-0.046845 0.32812,-0.10934 v -0.71875 c 0.1875,0.085937 0.37891,0.15234 0.57812,0.20312 0.20703,0.042969 0.41406,0.0625 0.625,0.0625 0.1875,0 0.32812,-0.023438 0.42188,-0.078125 0.09375,-0.050781 0.14062,-0.125 0.14062,-0.21875 0,-0.09375 -0.039062,-0.16016 -0.10938,-0.20312 -0.0625,-0.039062 -0.1875,-0.070312 -0.375,-0.09375 L 1.43748,-1.17184 C 1.00779,-1.222621 0.70701,-1.32028 0.53123,-1.46872 c -0.16797,-0.14453 -0.25,-0.36328 -0.25,-0.65625 0,-0.32031 0.10938,-0.55469 0.32812,-0.70312 0.21875,-0.15625 0.55078,-0.23438 1,-0.23438 0.17578,0 0.35938,0.015625 0.54688,0.046875 0.19531,0.023437 0.41016,0.0625 0.64062,0.125 z"
         id="path32" />
    </symbol>
    <symbol
       id="t"
       overflow="visible">
      <path
         d="m 1.9688,-2.2188 c 0.20703,0 0.35938,-0.035156 0.45312,-0.10938 0.09375,-0.082031 0.14062,-0.21875 0.14062,-0.40625 0,-0.17578 -0.046875,-0.30078 -0.14062,-0.375 -0.09375,-0.082031 -0.24609,-0.125 -0.45312,-0.125 H 1.5313 v 1.0156 z M 1.5313,-1.51568 V -8e-5 H 0.5001 v -3.9844 h 1.5781 c 0.51953,0 0.89844,0.089844 1.1406,0.26562 0.25,0.17969 0.375,0.45312 0.375,0.82812 0,0.27344 -0.0625,0.49219 -0.1875,0.65625 -0.125,0.16797 -0.32031,0.29297 -0.57812,0.375 0.13281,0.03125 0.25781,0.10547 0.375,0.21875 0.11328,0.10547 0.22656,0.27734 0.34375,0.51562 l 0.5625,1.125 H 3.00003 L 2.51565,-0.9845 C 2.4219,-1.19153 2.32034,-1.33216 2.21877,-1.40638 2.12502,-1.476692 1.99221,-1.51576 1.82815,-1.51576 Z"
         id="path35" />
    </symbol>
    <symbol
       id="g"
       overflow="visible">
      <path
         d="M 3.4688,-1.8281 V 0 H 2.50005 v -1.3906 c 0,-0.25781 -0.00781,-0.4375 -0.015625,-0.53125 -0.011719,-0.10156 -0.03125,-0.17578 -0.0625,-0.21875 -0.03125,-0.0625 -0.085937,-0.10938 -0.15625,-0.14062 -0.0625,-0.039062 -0.13281,-0.0625 -0.20312,-0.0625 -0.21094,0 -0.37109,0.078125 -0.48438,0.23438 -0.10547,0.15625 -0.15625,0.37109 -0.15625,0.64062 V 8e-5 h -0.96875 v -2.9844 h 0.96875 v 0.4375 c 0.13281,-0.17578 0.28516,-0.30469 0.45312,-0.39062 0.16406,-0.082031 0.34375,-0.125 0.53125,-0.125 0.34375,0 0.60156,0.10938 0.78125,0.32812 0.1875,0.21094 0.28125,0.51172 0.28125,0.90625 z"
         id="path38" />
    </symbol>
    <symbol
       id="d"
       overflow="visible">
      <path
         d="m 1.875,-2.375 c -0.21094,0 -0.37109,0.078125 -0.48438,0.23438 -0.10547,0.14844 -0.15625,0.35938 -0.15625,0.64062 0,0.29297 0.050781,0.51562 0.15625,0.67188 0.11328,0.14844 0.27344,0.21875 0.48438,0.21875 0.20703,0 0.36719,-0.070313 0.48438,-0.21875 C 2.47266,-0.98437 2.53126,-1.20703 2.53126,-1.5 2.53126,-1.78125 2.472666,-1.99219 2.35938,-2.14062 2.24219,-2.29687 2.08204,-2.375 1.875,-2.375 Z m 0,-0.6875 c 0.51953,0 0.92188,0.14062 1.2031,0.42188 0.28906,0.27344 0.4375,0.65234 0.4375,1.1406 0,0.5 -0.14844,0.89062 -0.4375,1.1719 C 2.79685,-0.05468 2.39451,0.07813 1.875,0.07813 1.36328,0.07813 0.96094,-0.05468 0.6719,-0.32812 0.37893,-0.60937 0.2344,-1 0.2344,-1.50002 c 0,-0.48828 0.14453,-0.86719 0.4375,-1.1406 C 0.96096,-2.92187 1.36331,-3.0625 1.875,-3.0625 Z"
         id="path41" />
    </symbol>
    <symbol
       id="s"
       overflow="visible">
      <path
         d="m 2.4219,-4.1562 v 0.625 H 1.90628 c -0.13672,0 -0.23438,0.027344 -0.29688,0.078125 -0.054687,0.054687 -0.078125,0.13672 -0.078125,0.25 v 0.21875 h 0.82812 v 0.67188 h -0.82812 v 2.3125 h -0.95312 v -2.3125 h -0.46875 v -0.67188 h 0.46875 v -0.21875 c 0,-0.32031 0.085937,-0.5625 0.26562,-0.71875 0.1875,-0.15625 0.47266,-0.23438 0.85938,-0.23438 z"
         id="path44" />
    </symbol>
    <symbol
       id="r"
       overflow="visible">
      <path
         d="m 3.2344,-2.5 c 0.11328,-0.17578 0.25391,-0.3125 0.42188,-0.40625 0.16406,-0.10156 0.35156,-0.15625 0.5625,-0.15625 0.33203,0 0.58594,0.10938 0.76562,0.32812 0.1875,0.21094 0.28125,0.51172 0.28125,0.90625 V -3e-5 H 4.2969 v -1.5625 c 0.00781,-0.019531 0.015625,-0.039062 0.015625,-0.0625 v -0.10938 c 0,-0.21875 -0.03125,-0.375 -0.09375,-0.46875 -0.0625,-0.09375 -0.16406,-0.14062 -0.29688,-0.14062 -0.1875,0 -0.33594,0.078125 -0.4375,0.23438 -0.09375,0.14844 -0.14062,0.35938 -0.14062,0.64062 V 2e-5 h -0.96875 v -1.5625 c 0,-0.33203 -0.03125,-0.54688 -0.09375,-0.64062 -0.054688,-0.09375 -0.15234,-0.14062 -0.29688,-0.14062 -0.17969,0 -0.32031,0.078125 -0.42188,0.23438 -0.09375,0.14844 -0.14062,0.35938 -0.14062,0.64062 V 8e-5 h -0.96875 v -2.9844 h 0.96875 v 0.4375 c 0.11328,-0.17578 0.24219,-0.30469 0.39062,-0.39062 0.15625,-0.082031 0.32812,-0.125 0.51562,-0.125 0.20703,0 0.39062,0.054688 0.54688,0.15625 0.15625,0.09375 0.27344,0.23047 0.35938,0.40625 z"
         id="path47" />
    </symbol>
    <symbol
       id="q"
       overflow="visible">
      <path
         d="M 3.4688,-1.8281 V 0 H 2.50005 v -1.3906 c 0,-0.25781 -0.00781,-0.4375 -0.015625,-0.53125 -0.011719,-0.10156 -0.03125,-0.17578 -0.0625,-0.21875 -0.03125,-0.0625 -0.085937,-0.10938 -0.15625,-0.14062 -0.0625,-0.039062 -0.13281,-0.0625 -0.20312,-0.0625 -0.21094,0 -0.37109,0.078125 -0.48438,0.23438 -0.10547,0.15625 -0.15625,0.37109 -0.15625,0.64062 V 8e-5 h -0.96875 v -4.1562 h 0.96875 v 1.6094 c 0.13281,-0.17578 0.28516,-0.30469 0.45312,-0.39062 0.16406,-0.082031 0.34375,-0.125 0.53125,-0.125 0.34375,0 0.60156,0.10938 0.78125,0.32812 0.1875,0.21094 0.28125,0.51172 0.28125,0.90625 z"
         id="path50" />
    </symbol>
    <symbol
       id="p"
       overflow="visible">
      <path
         d="M 0.5,-3.9844 H 1.6562 L 3.0937,-1.25 V -3.9844 H 4.07808 V 0 H 2.92188 L 1.48438,-2.7344 V 0 H 0.5 Z"
         id="path53" />
    </symbol>
    <symbol
       id="o"
       overflow="visible">
      <path
         d="m 0.42188,-1.1719 v -1.8125 h 0.96875 v 0.29688 0.60938 0.48438 c 0,0.24219 0.00391,0.41797 0.015625,0.53125 0.00781,0.10547 0.03125,0.17969 0.0625,0.21875 0.039062,0.0625 0.09375,0.11719 0.15625,0.15625 0.0625,0.03125 0.13281,0.046875 0.21875,0.046875 0.19531,0 0.35156,-0.078125 0.46875,-0.23438 0.11328,-0.15625 0.17188,-0.36719 0.17188,-0.64062 v -1.4688 h 0.95312 v 2.9844 h -0.95312 v -0.4375 c -0.14844,0.17969 -0.30469,0.30859 -0.46875,0.39062 -0.15625,0.082031 -0.33594,0.125 -0.53125,0.125 -0.34375,0 -0.60938,-0.10156 -0.79688,-0.3125 -0.17969,-0.21875 -0.26562,-0.53125 -0.26562,-0.9375 z"
         id="path56" />
    </symbol>
    <symbol
       id="n"
       overflow="visible">
      <path
         d="m 0.5,-3.9844 h 1.7031 c 0.50781,0 0.89844,0.11719 1.1719,0.34375 0.26953,0.21875 0.40625,0.53906 0.40625,0.95312 0,0.41797 -0.13672,0.74219 -0.40625,0.96875 -0.27344,0.21875 -0.66406,0.32812 -1.1719,0.32812 H 1.53122 V -6e-5 h -1.0312 z m 1.0312,0.75 v 1.1094 h 0.5625 c 0.19531,0 0.34766,-0.046875 0.45312,-0.14062 C 2.6601,-2.36718 2.7187,-2.50781 2.7187,-2.6875 2.7187,-2.86328 2.660106,-3 2.54682,-3.09375 2.44135,-3.1875 2.28901,-3.23437 2.0937,-3.23437 Z"
         id="path59" />
    </symbol>
    <symbol
       id="m"
       overflow="visible">
      <path
         d="m 0.45312,-2.9844 h 0.96875 v 2.9375 c 0,0.39453 -0.10156,0.69531 -0.29688,0.90625 C 0.93749,1.0781 0.66015,1.18747 0.29687,1.18747 H -0.18751 V 0.54685 h 0.17188 c 0.17578,0 0.29688,-0.042969 0.35938,-0.125 C 0.414062,0.347631 0.45313,0.19138 0.45313,-0.0469 Z m 0,-1.1719 h 0.96875 v 0.78125 H 0.45312 Z"
         id="path62" />
    </symbol>
    <symbol
       id="l"
       overflow="visible">
      <path
         d="m 2.875,-2.8906 v 0.76562 C 2.75,-2.207011 2.61719,-2.26951 2.48438,-2.31248 2.34766,-2.351542 2.21094,-2.37498 2.07813,-2.37498 c -0.27344,0 -0.48047,0.078125 -0.625,0.23438 -0.14844,0.15625 -0.21875,0.37109 -0.21875,0.64062 0,0.28125 0.070313,0.5 0.21875,0.65625 0.14453,0.15625 0.35156,0.23438 0.625,0.23438 0.14453,0 0.28516,-0.019531 0.42188,-0.0625 0.13281,-0.039063 0.25781,-0.10938 0.375,-0.20312 v 0.78125 c -0.14844,0.0625 -0.29688,0.10156 -0.45312,0.125 -0.15625,0.03125 -0.3125,0.046875 -0.46875,0.046875 -0.54297,0 -0.96484,-0.13281 -1.2656,-0.40625 -0.30469,-0.28125 -0.45312,-0.67188 -0.45312,-1.1719 0,-0.48828 0.14844,-0.86719 0.45312,-1.1406 0.30078,-0.28125 0.72266,-0.42188 1.2656,-0.42188 0.15625,0 0.3125,0.015625 0.46875,0.046875 0.15625,0.023437 0.30469,0.0625 0.45312,0.125 z"
         id="path65" />
    </symbol>
  </defs>
  <rect
     style="fill:#ffffff;fill-opacity:1;stroke:#333333;stroke-width:0.0332038;stroke-opacity:1;paint-order:markers stroke fill;stop-color:#000000"
     id="rect17368"
     width="362.12064"
     height="359.9668"
     x="-1.060318"
     y="0.016601562" />
  <path
     d="m 76.714932,275.86619 c 4.8153,-4.8153 12.085499,2.4549 7.364562,7.36455 l -58.633653,58.63364 c -4.815291,4.81531 -12.085499,-2.4549 -7.364562,-7.27019 z m 20.866478,20.86647 c 4.81529,-4.81529 12.0855,2.45491 7.36455,7.2702 l -25.492623,25.49263 c -4.815291,4.8153 -12.0855,-2.45492 -7.270208,-7.2702 z M 55.848463,254.99972 c 4.81529,-4.81531 12.085499,2.4549 7.270198,7.27019 l -25.492626,25.49264 c -4.81529,4.81529 -12.085499,-2.45492 -7.364553,-7.36456 z M 281.41563,78.534189 c 23.79289,23.792891 6.89252,64.581451 -26.72018,64.581451 -33.6127,0 -50.51391,-40.78856 -26.72017,-64.581451 14.63467,-14.728764 38.61662,-14.728764 53.44035,0 z m 0.66093,26.720181 c 0,-24.454146 -29.64747,-36.634602 -46.92541,-19.449886 -17.27881,17.278806 -5.00416,46.925396 19.44988,46.925396 15.20098,0 27.47553,-12.27455 27.47553,-27.47551 z m -117.73692,5.38237 c 1.32181,0 2.73814,0.18883 4.05994,0.18883 3.30461,0.28326 5.75952,3.4935 4.43762,7.08134 -3.96559,12.17959 -10.29165,24.92632 -18.69453,37.57812 -8.40322,12.55769 -18.88359,25.20948 -31.15814,37.38907 -1.51068,1.51069 -3.77671,1.79393 -5.57063,1.03858 -8.02555,-2.83249 -16.61756,-5.38185 -25.681685,-7.459 l -6.892526,8.97002 79.688301,79.68833 8.97003,-6.89255 c -2.07714,-9.06411 -4.6265,-17.65604 -7.45899,-25.68167 -0.75534,-1.79391 -0.37767,-4.05994 1.13302,-5.57064 12.17959,-12.27455 24.73728,-22.7544 37.38907,-31.15813 12.74675,-8.40322 25.39854,-14.72877 37.57812,-18.69454 3.49349,-1.22746 6.79809,1.13302 7.08132,4.43763 0.0943,1.32181 0.18885,2.73814 0.18885,4.05994 C 292.27494,145.57034 330.13707,81.464554 339.4809,20.562285 276.69328,30.287656 212.29829,69.565515 164.33614,110.63377 Z M 36.216109,164.83242 c -2.077151,1.41625 -4.059948,2.73815 -5.948315,4.05995 29.552498,0.4721 59.955289,4.90974 87.619856,14.35153 17.93919,-18.12825 34.1795,-39.93911 42.96049,-62.41037 -42.29924,-0.47209 -89.510368,20.30019 -124.636002,43.99899 z M 296.24316,20.655898 c 16.80662,-5.665072 33.04606,-9.442224 48.53105,-11.2360584 3.39904,-0.377671 6.13718,2.5492634 5.75951,5.8538774 C 341.8477,84.576264 298.88721,155.95752 248.93786,211.56807 l 2.5e-4,0.002 c -0.84976,10.66891 -2.73814,21.90497 -7.31932,38.75843 -11.56806,37.15366 -29.41316,69.91659 -51.79033,98.33304 -3.02137,3.87116 -9.34726,1.60513 -9.15821,-3.39904 0.84978,-22.18811 -0.75535,-44.37622 -4.72094,-65.62079 l -8.87507,6.6092 c -2.07715,1.51069 -4.90973,1.32181 -6.70366,-0.47209 l -8.02554,-8.02555 -8.97002,8.97003 c -3.77673,3.77671 -8.78098,5.66508 -13.78524,5.66508 -5.00426,0 -10.00852,-1.88837 -13.78524,-5.66508 L 73.411208,244.23508 c -7.553431,-7.55343 -7.553431,-19.92208 0,-27.4755 l 8.970029,-8.97004 -8.025542,-8.02555 c -1.888367,-1.88836 -1.982806,-4.90973 -0.283251,-6.98697 l 6.420415,-8.49766 c -21.243714,-3.96559 -43.43182,-5.57063 -65.620798,-4.72093 -5.0985232,0 -7.3645525,-6.32599 -3.493483,-9.34728 l 1.04e-4,0.004 C 39.326396,148.21571 71.523021,130.5588 102.96085,120.3621 l 10.29857,-3.11548 c 12.17959,-3.3046 23.98194,-5.38184 35.02896,-6.23162 21.52772,-19.355776 43.71583,-36.162396 65.99803,-50.324865 l 10.38662,-6.419479 v 0 C 244.40606,42.468314 265.08347,32.176648 285.94995,24.340061 M 190.96571,329.59331 c 26.34293,-37.38907 48.53104,-86.67891 47.96388,-130.48883 -22.47126,8.68601 -44.28212,24.92633 -62.41036,42.86553 9.63042,27.75866 14.06838,58.06736 14.44563,87.61985 z m -46.07595,-59.2949 -55.329135,-55.32913 -8.970028,8.97002 c -3.493483,3.4935 -3.493483,9.34728 0,12.84085 l 42.488283,42.39334 c 1.79393,1.79392 4.05996,2.64369 6.42043,2.64369 2.36047,0 4.72094,-0.84976 6.42042,-2.64369 z"
     id="path70"
     sodipodi:nodetypes="ccsccccscccsscccsccscsscccccccccccccccccccccccccccccccccccscssccscscccccccccccccccccccsccscc"
     style="fill:#333333;fill-opacity:1;stroke:#333333;stroke-width:0.86325;stroke-opacity:1" />
</svg>
